<svg width="91" height="90" viewBox="0 0 91 90" fill="none" xmlns="http://www.w3.org/2000/svg">
<path d="M22.9999 33.75V7.5M67.9999 33.75V7.5M45.4999 15V7.5M50.3749 30.4125L55.3249 40.3125C55.9999 41.6625 57.7999 43.0125 59.2999 43.2375L68.2624 44.7375C73.9999 45.7125 75.3499 49.8375 71.2249 53.9625L64.2499 60.9375C63.0874 62.1 62.4124 64.3875 62.7874 66.0375L64.7749 74.7C66.3499 81.525 62.7124 84.1875 56.6749 80.625L48.2749 75.6375C46.7374 74.7375 44.2624 74.7375 42.7249 75.6375L34.3249 80.625C28.2874 84.1875 24.6499 81.525 26.2249 74.7L28.2124 66.0375C28.5874 64.425 27.9124 62.1375 26.7499 60.9375L19.7749 53.9625C15.6499 49.8375 16.9999 45.675 22.7374 44.7375L31.6999 43.2375C33.1999 42.975 34.9999 41.6625 35.6749 40.3125L40.6249 30.4125C43.2874 25.05 47.7124 25.05 50.3749 30.4125Z" stroke="#00AB55" stroke-width="3" stroke-linecap="round" stroke-linejoin="round"/>
</svg>
